<svg width="320" height="400" viewBox="0 0 320 400" fill="none" xmlns="http://www.w3.org/2000/svg">
  <g opacity="0.35" stroke="#2F5D4A" stroke-width="4" stroke-linecap="round" stroke-linejoin="round">
    <path d="M154 320C154 278 160 242 176 208C189 180 210 155 239 133"/>
    <path d="M168 286C142 266 124 242 114 215C104 187 103 154 112 116"/>
    <path d="M181 191C204 198 226 195 247 182C266 171 281 154 292 130"/>
    <path d="M153 230C131 229 111 220 95 204C81 190 71 172 66 150"/>
    <path d="M177 154C190 132 209 116 235 108C257 101 279 102 301 111"/>
    <path d="M126 181C108 172 94 159 84 142C75 127 70 111 70 93"/>
    <path d="M170 103C183 84 200 70 223 62C242 56 261 56 280 61"/>
    <path d="M160 334C152 350 142 362 131 370C119 379 105 383 90 383"/>
    <path d="M161 334C173 346 186 355 200 360C217 366 235 367 254 364"/>
    <path d="M163 336C169 318 176 300 186 283"/>
  </g>
</svg>
